<?xml version="1.0" encoding="UTF-8" standalone="no"?>
<!-- Created with Inkscape (http://www.inkscape.org/) -->
<svg id="svg2" xmlns:rdf="http://www.w3.org/1999/02/22-rdf-syntax-ns#" xmlns="http://www.w3.org/2000/svg" xml:space="preserve" height="56.321" viewBox="0 0 225.00129 56.321673" width="225" version="1.1" xmlns:cc="http://creativecommons.org/ns#" xmlns:dc="http://purl.org/dc/elements/1.1/"><metadata id="metadata8"><rdf:RDF><cc:Work rdf:about=""><dc:format>image/svg+xml</dc:format><dc:type rdf:resource="http://purl.org/dc/dcmitype/StillImage"/><dc:title/></cc:Work></rdf:RDF></metadata><defs id="defs6"><clipPath id="clipPath18" clipPathUnits="userSpaceOnUse"><path id="path20" d="m19 306h574v180h-574v-180z"/></clipPath></defs><g id="g10" transform="matrix(.42775 0 0 -.42775 -18.124 197.24)"><g id="g14"><g id="g16" clip-path="url(#clipPath18)"><g id="g11" fill="#393536"><path id="path22" d="m554.31 421.33h-2.8494v1.029h6.9364v-1.029h-2.8647v-8.3382h-1.2223v8.3382"/><path id="path24" d="m566.97 417.1c-0.0695 1.3071-0.1529 2.8771-0.139 4.0453h-0.0418c-0.3198-1.0986-0.7092-2.2806-1.182-3.5586l-1.6534-4.5446h-0.9164l-1.5158 4.4611c-0.4436 1.3211-0.8205 2.5296-1.0833 3.6421h-0.0292c-0.0264-1.1682-0.096-2.7382-0.1808-4.1427l-0.2489-4.0161h-1.1542l0.6536 9.3672h1.5435l1.5979-4.5306c0.3879-1.1542 0.7092-2.1819 0.9456-3.1553h0.0403c0.2364 0.9456 0.5702 1.9733 0.9874 3.1553l1.6673 4.5306h1.5436l0.5827-9.3672h-1.1807l-0.2364 4.1135"/><path id="path26" d="m158.42 372.28c-2.1068-1.0179-6.7584-2.1818-12.716-2.1818-15.55 0-24.996 9.7385-24.996 24.635 0 16.133 11.263 25.796 26.231 25.796 5.8851 0 10.028-1.1626 11.845-2.1068l-1.8899-7.1214c-2.3251 1.0166-5.5944 1.8899-9.5925 1.8899-9.954 0-17.148-6.2495-17.148-18.021 0-10.755 6.2494-17.584 17.075-17.584 3.56 0 7.3397 0.7272 9.7371 1.7424l1.4532-7.0477"/><path id="path28" d="m317.8 419.8v-19.62h20.709v19.62h8.9389v-48.975h-8.9389v21.578h-20.709v-21.578h-8.9389v48.975h8.9389"/><path id="path30" d="m181.78 410.9c-2.3905 0-4.8408-0.6314-6.6847-1.7564-1.8996-1.0694-3.4418-2.549-4.6016-4.4068l-0.203-0.3268-0.1933-0.0181v19.976h-8.4397v-53.628h8.4397v23.584c0 1.5019 0.1363 2.5295 0.4422 3.3347 1.2543 3.7588 4.4708 6.2258 7.9919 6.2258 4.9854 0 8.3354-3.9424 8.3354-11.062v-22.082h8.3604v23.25c0 15.69-10.293 16.91-13.447 16.91"/><path id="path32" d="m208.42 402.69-0.178-0.4673h-0.3811l-0.3337 7.7583h-7.5191c0.203-3.2958 0.2865-6.9698 0.2865-12.403v-26.838h8.8721v20.329c0 1.2321 0.1739 2.3571 0.3449 3.2944 1.0291 5.1439 4.806 8.3312 9.8609 8.3312 0.9011 0 1.6437-0.0834 2.3084-0.1933v8.2645c-0.5854 0.089-1.1125 0.1335-1.8801 0.1335-4.1148 0-9.2309-2.5393-11.381-8.2102"/><path id="path34" d="m225.16 409.2h8.9556v-38.452h-8.9556v38.452z"/><path id="path36" d="m238.81 398.83c-0.082-4.8672 3.4348-8.7331 10.167-11.194 4.4083-1.6242 6.7974-3.1539 6.7974-6.5762 0-1.5645-0.6703-5.2023-6.878-5.2023-3.2499 0-7.0185 1.2154-9.466 2.549l-1.5408-6.0131c2.9412-1.5853 6.8878-2.4878 10.928-2.4878 9.2532 0 15.001 4.5932 15.001 11.987-0.0737 5.6403-3.0218 9.1669-9.8581 11.783-4.8671 1.8175-7.1853 3.2276-7.1853 6.3231 0 3.0065 2.3877 4.9506 6.0853 4.9506 3.3598 0 6.2384-1.2195 7.7194-1.9886l1.5366 5.8601c-1.399 0.7051-4.7267 2.0804-9.4145 2.0804-8.1782 0-13.891-4.9645-13.891-12.071"/><path id="path38" d="m279.26 421.39-8.6205-2.0845v-9.3255h-5.8406v-6.2842h5.8406v-19.802c0-5.2245 0.9484-8.6802 2.9843-10.873 1.8231-1.9802 4.8588-3.1164 8.334-3.1164 2.6825 0 5.1397 0.2948 6.7194 0.7955l-0.1376 6.4788c-1.0388-0.2127-2.1541-0.3198-3.3278-0.3198-5.2746 0-5.9518 4.3832-5.9518 8.2033v18.634h9.7621v6.2842h-9.7621v11.41"/><path id="path40" d="m370.65 375.86c-6.4553 0-10.791 5.8128-10.791 14.462 0 6.6722 2.848 14.462 10.875 14.462 7.2813 0 10.541-7.1812 10.541-14.296 0-8.6135-4.3693-14.629-10.624-14.629zm0.3337 35.044c-12.352 0-20.331-8.1769-20.331-20.832 0-12.11 7.9029-20.246 19.663-20.246 10.036 0 20.163 6.4664 20.163 20.914 0 12.06-7.8347 20.164-19.495 20.164"/><path id="path42" d="m407.31 393.68c-4.8671 1.8161-7.1853 3.2276-7.1853 6.3231 0 3.0065 2.3891 4.9506 6.0854 4.9506 3.3583 0 6.2397-1.2195 7.7207-1.9886l1.5352 5.8587c-1.3975 0.7065-4.7281 2.0818-9.4145 2.0818-8.1796 0-13.891-4.9645-13.891-12.071-0.0806-4.8672 3.4349-8.7345 10.167-11.194 4.4096-1.6242 6.7987-3.1539 6.7987-6.5762 0-1.5645-0.6717-5.2023-6.8794-5.2023-3.2499 0-7.0185 1.2168-9.4646 2.549l-1.5408-6.0131c2.9398-1.5853 6.8864-2.4878 10.926-2.4878 9.2518 0 15.001 4.5932 15.001 11.987-0.075 5.6389-3.0218 9.1669-9.8581 11.783"/><path id="path44" d="m438.32 376.36c-4.4041 0-8.2032 3.172-9.2393 7.7151-0.2266 0.8733-0.3351 1.8287-0.3351 2.9913v6.2578c0 1.0666 0.2295 2.0984 0.4241 2.777 0.9832 4.6725 4.9367 8.0976 9.3881 8.0976 6.1535 0 10.288-5.511 10.288-13.712 0-8.5815-4.1315-14.127-10.526-14.127zm2.9467 34.542c-5.6792 0-10.204-2.3682-13.087-6.8488l-0.21-0.3282h-0.2044l-0.4742 6.2578h-7.1937c0.1447-3.567 0.2893-7.7638 0.2893-12.82v-42.941h8.359v21.025h0.2948l0.2086-0.3324c1.9789-3.14 6.0492-5.0896 10.624-5.0896 8.4244 0 17.49 6.5971 17.49 21.08 0 11.587-6.7696 19.997-16.096 19.997"/><path id="path46" d="m461.24 409.2h8.9542v-38.452h-8.9542v38.452z"/><path id="path48" d="m493.25 376.86c-5.2747 0-5.9505 4.3832-5.9505 8.2033v17.844h9.7608v6.2856h-9.7608v12.198l-8.6218-2.0845v-10.114h-5.842v-6.2856h5.842v-19.013c0-5.2259 0.947-8.6816 2.9842-10.873 1.8231-1.9802 4.8589-3.1164 8.334-3.1164 2.6825 0 5.1411 0.2948 6.7195 0.7955l-0.1363 6.4788c-1.0402-0.2127-2.1568-0.3198-3.3291-0.3198"/><path id="path50" d="m521.81 384.31c0-0.5075-0.0473-1.506-0.3685-2.4711-0.9178-2.9175-4.0245-6.0673-8.6705-6.0673-4.0314 0-6.536 2.5045-6.536 6.5359 0 3.7867 2.4072 8.2993 13.881 8.2993 0.3379 0 0.6772-0.004 1.0152-0.0112l0.6786-0.0153v-6.2703zm8.6204-4.5056v14.685c0 7.4857-2.7882 16.409-16.074 16.409-7.2605 0-12.041-2.2014-13.862-3.2179l1.5908-5.2969c2.9551 1.6451 6.8947 2.6464 10.519 2.6464 8.0823 0 8.9542-5.4471 8.9542-7.7875v-1.367l-1.0513 0.004c-14.871 0-23.059-5.2051-23.059-14.657 0-0.7802 0.089-1.5617 0.2531-2.3293 0.0737-0.3491 0.1641-0.6939 0.2712-1.036 1.3711-4.3666 5.4457-8.0364 12.044-8.0364 4.8936 0 9.2463 1.8787 11.941 5.1578l0.2183 0.2642h0.2058l0.6689-4.5042h7.8515c-0.3852 2.8452-0.4715 6.4413-0.4715 9.0654"/><path id="path52" d="m535.33 422.06h8.9542v-51.315h-8.9542v51.315z"/><path id="path54" d="m234.51 415.85c0-2.6978-2.1875-4.8852-4.8867-4.8852-2.6978 0-4.8852 2.1874-4.8852 4.8852 0 2.6992 2.1874 4.8867 4.8852 4.8867 2.6992 0 4.8867-2.1875 4.8867-4.8867"/><path id="path56" d="m470.56 415.85c0-2.6978-2.1888-4.8852-4.8866-4.8852-2.6992 0-4.8867 2.1874-4.8867 4.8852 0 2.6992 2.1875 4.8867 4.8867 4.8867 2.6978 0 4.8866-2.1875 4.8866-4.8867"/><path id="path58" d="m128.67 455.08h-8.2088v4.4041h21.763v-4.4041h-8.2951v-24.414h-5.2593v24.414"/><path id="path60" d="m144.97 461.02h5.301v-12.4h0.0863c0.641 0.9845 1.4963 1.7966 2.6074 2.3946 1.0262 0.5994 2.2667 0.9401 3.5919 0.9401 3.5489 0 7.2688-2.3502 7.2688-9.021v-12.271h-5.2593v11.672c0 3.0371-1.1111 5.3024-4.0189 5.3024-2.0526 0-3.5058-1.3684-4.062-2.9495-0.1711-0.4283-0.2142-0.9846-0.2142-1.5825v-12.442h-5.301v30.357"/><path id="path62" d="m180.59 443.28c0.0417 1.9246-0.8135 5.0883-4.3192 5.0883-3.2499 0-4.6183-2.9509-4.831-5.0883h9.1502zm-9.1502-3.6768c0.1279-3.763 3.0774-5.3873 6.4135-5.3873 2.4364 0 4.1899 0.3421 5.7711 0.9401l0.7704-3.6337c-1.7967-0.7273-4.2762-1.2835-7.2688-1.2835-6.7556 0-10.731 4.1482-10.731 10.519 0 5.7725 3.5057 11.202 10.175 11.202 6.7557 0 8.9793-5.5583 8.9793-10.132 0-0.9832-0.0848-1.7536-0.1711-2.2236h-13.938"/></g><path id="path64" fill="#1c6dbf" d="m64.85 381.81c-0.66193 2.0595-2.8438 2.3154-2.8438 2.3154v2.5059h5.5903v3.9424h1.5311v11.557h-0.0014s0 0.0306 0.0014 0.0668v0.2573c-0.0083 0.3254-0.03616 0.8343-0.16132 1.2168-0.31567 0.9789-1.3141 1.1166-1.3767 1.1333h-0.007v2.8341h-4.0648v3.8478h4.9506c0.1933 0 0.39216 0.039 0.59241 0.0863 2.7729 0.8288 6.974 7.5093 10.076 14.134 0.25031 0.5507 0.78431 1.602 1.1848 2.015 0.55764 0.573 1.2696 1.0569 2.1207 1.4463-0.0445 0.5312-0.02364 1.2877 0.39215 1.5881 0.5048 0.324 1.0263 0.5771 1.488 0.7982 0.4589 0.2225 1.1528 0.5576 1.2557 0.7412 0.089 0.317 0.09317 1.1333 0.07231 1.7369-0.5632 0.4269-0.90112 1.0846-0.90112 1.7938 0 0.7816 0.3991 1.4964 1.0457 1.9163l0.67723 13.24 0.80656 0.8427 0.81352-0.8413 0.66471-13.24c0.65498-0.42 1.061-1.1361 1.061-1.9177 0-0.7161-0.34766-1.3822-0.92616-1.8105-0.04867-0.5354-0.05701-1.2919 0.089-1.6952 0.09735-0.2587 0.72869-0.5465 1.2835-0.801 0.44639-0.2044 0.95258-0.4367 1.431-0.7426 0.4297-0.3212 0.45752-1.0819 0.41858-1.6075 0.85245-0.388 1.5644-0.8734 2.1193-1.4477 0.36852-0.3768 0.88027-1.3127 1.2001-2.0219 0.26978-0.5772 0.54234-1.189 0.82324-1.8204 1.5784-3.5405 3.3514-7.4384 6.668-10.225v47.463h-60.557v-91.017h22.808l-0.0028 8.5593s0.07232 1.9079-0.32262 3.1497"/><path id="path66" fill="#fff" d="m88.137 436.53-0.0042 0.0834c0.07371-0.057 0.13629-0.1223 0.19052-0.1933-0.06258 0.0362-0.1182 0.0821-0.18634 0.1099zm-1.7202 0c-0.06397-0.0264-0.11403-0.0695-0.17244-0.1029 0.05146 0.0681 0.10847 0.1307 0.17522 0.1835l-0.0028-0.0806zm16.508-22.877c-3.3166 2.7868-5.0897 6.6847-6.668 10.225-0.2809 0.6314-0.55346 1.2432-0.82324 1.8204-0.31984 0.7092-0.83159 1.6451-1.2001 2.0219-0.55485 0.5743-1.2668 1.0597-2.1193 1.4477 0.03894 0.5256 0.01112 1.2863-0.41858 1.6075-0.47837 0.3059-0.98456 0.5382-1.431 0.7426-0.55485 0.2545-1.1862 0.5423-1.2835 0.801-0.14601 0.4033-0.13767 1.1598-0.089 1.6952 0.5785 0.4283 0.92616 1.0944 0.92616 1.8105 0 0.7816-0.40607 1.4977-1.061 1.9177l-0.66471 13.24-0.81352 0.8413-0.80656-0.8427-0.67723-13.24c-0.64664-0.4199-1.0457-1.1347-1.0457-1.9163 0-0.7092 0.33792-1.3669 0.90112-1.7938 0.02086-0.6036 0.01669-1.4199-0.07231-1.7369-0.10291-0.1836-0.79683-0.5187-1.2557-0.7412-0.46169-0.2211-0.98317-0.4742-1.488-0.7982-0.41579-0.3004-0.43665-1.0569-0.39215-1.5881-0.85106-0.3894-1.5631-0.8733-2.1207-1.4463-0.40049-0.413-0.93449-1.4643-1.1848-2.015-3.1025-6.6249-7.3035-13.305-10.076-14.134-0.20025-0.0473-0.39911-0.0863-0.59241-0.0863h-4.9506v-3.8478h4.0648v-2.8341h0.007c0.06258-0.0167 1.061-0.1544 1.3767-1.1333 0.12516-0.3825 0.15297-0.8914 0.16132-1.2168v-0.2573c-0.0014-0.0362-0.0014-0.0668-0.0014-0.0668h0.0014v-11.557h-1.5311v-3.9424h-5.5903v-2.5059s2.1819-0.2559 2.8438-2.3154c0.39494-1.2418 0.32262-3.1497 0.32262-3.1497l0.0028-8.5593 37.748 0.001 0.001 43.553"/><path id="path68" fill="#fabd27" d="m102.93 351.8v15.682h-60.557v-37.636l44.528 34.849 16.03-12.895"/><g id="g37" fill="#1c6dbf"><path id="path70" d="m77.901 390.85v-0.2712h7.0087v9.4785c-3.806-0.98-7.009-4.05-7.009-9.21"/><path id="path72" d="m88.9 400.05v-9.4785h7.0157v0.2712c0 5.1647-3.2026 8.2297-7.0157 9.2073"/><path id="path74" d="m77.901 386.63h7.0087v-16.54h-7.0087v16.54z"/><path id="path76" d="m88.9 386.63h7.0171v-16.54h-7.0171v16.54z"/></g><path id="path78" fill="#fff" d="m102.92 375.01v-4.9033l-60.556-0.001v-2.6158h60.556l0.001 7.5205h-0.001"/><g id="g44" fill="#393536"><path id="path80" d="m122.28 354.22h3.1456v-21.73h10.413v-2.6408h-13.559v24.371"/><path id="path82" d="m138.51 347.35h3.1817v-17.501h-3.1817v17.501zm3.5433 4.9158c0.0361-1.0833-0.7593-1.951-2.0248-1.951-1.1208 0-1.9163 0.8677-1.9163 1.951 0 1.1222 0.8316 1.99 1.9886 1.99 1.1932 0 1.9525-0.8678 1.9525-1.99"/><path id="path84" d="m145.52 342.62c0 1.8078-0.0361 3.2888-0.1446 4.7365h2.8202l0.1808-2.8925h0.0723c0.8677 1.6618 2.8925 3.2888 5.785 3.2888 2.4224 0 6.1827-1.4463 6.1827-7.4468v-10.45h-3.1818v10.088c0 2.8201-1.0485 5.1717-4.0495 5.1717-2.097 0-3.724-1.4838-4.2664-3.2555-0.1446-0.3963-0.2169-0.94-0.2169-1.481v-10.523h-3.1818v12.764"/><path id="path86" d="m176.08 340.23c0 0.3977-0.0362 0.9415-0.1447 1.3392-0.47 2.0233-2.2055 3.6865-4.5918 3.6865-3.2902 0-5.2426-2.8925-5.2426-6.7612 0-3.5433 1.7355-6.4719 5.1703-6.4719 2.1332 0 4.0856 1.4101 4.6641 3.7964 0.1085 0.4352 0.1447 0.8677 0.1447 1.3753v3.0357zm3.1817 15.295v-21.153c0-1.5547 0.0361-3.3249 0.1446-4.5195h-2.8563l-0.1446 3.0385h-0.0724c-0.9762-1.9538-3.1094-3.4362-5.9657-3.4362-4.2303 0-7.4843 3.5795-7.4843 8.8958-0.0376 5.8197 3.578 9.3992 7.8458 9.3992 2.6756 0 4.4834-1.2655 5.2788-2.6742h0.0724v10.449h3.1817"/><path id="path88" d="m183.81 342.62c0 1.8078-0.0348 3.2888-0.1447 4.7365h2.8216l0.1808-2.8925h0.0723c0.8677 1.6618 2.8925 3.2888 5.785 3.2888 2.4224 0 6.1827-1.4463 6.1827-7.4468v-10.45h-3.1818v10.088c0 2.8201-1.0485 5.1717-4.0494 5.1717-2.0971 0-3.7255-1.4838-4.2665-3.2555-0.1446-0.3963-0.2169-0.94-0.2169-1.481v-10.523h-3.1831v12.764"/><path id="path90" d="m213.53 340.3c0.0347 2.0248-0.833 5.1703-4.4111 5.1703-3.2192 0-4.6279-2.9648-4.8824-5.1703h9.2935zm-9.3283-2.2792c0.0709-4.3026 2.8188-6.0742 6.0005-6.0742 2.2793 0 3.6518 0.3977 4.8449 0.9039l0.5424-2.2765c-1.1209-0.5075-3.0371-1.1222-5.8211-1.1222-5.3873 0-8.6052 3.5795-8.6052 8.8582 0 5.2788 3.1094 9.4368 8.2074 9.4368 5.7141 0 7.2313-5.0243 7.2313-8.2422 0-0.6508-0.071-1.157-0.1085-1.4838h-12.292"/><path id="path92" d="m219.82 341.89c0 2.0623-0.0362 3.8325-0.1447 5.461h2.784l0.1085-3.4363h0.1446c0.7955 2.3516 2.7118 3.8326 4.845 3.8326 0.3615 0 0.6146-0.0348 0.9039-0.1085v-2.9995c-0.3254 0.0723-0.6508 0.107-1.0833 0.107-2.2431 0-3.834-1.6993-4.2678-4.0842-0.0724-0.4353-0.1447-0.9401-0.1447-1.4838v-9.3283h-3.1455v12.04"/><path id="path94" d="m241.84 342.8h3.2179c3.3625 0 5.4957 1.844 5.4957 4.628 0 3.1456-2.2778 4.5195-5.6041 4.5556-1.5186 0-2.6033-0.1446-3.1095-0.2906v-8.893zm-3.1456 11.1c1.5909 0.3254 3.8687 0.5062 6.0381 0.5062 3.3625 0 5.5319-0.6146 7.0505-1.9886 1.2293-1.0847 1.9162-2.7478 1.9162-4.628 0-3.2192-2.0247-5.3525-4.5918-6.2188v-0.1085c1.8801-0.6522 3.001-2.3877 3.5795-4.9172 0.7954-3.4001 1.3739-5.7502 1.8801-6.6903h-3.2541c-0.3977 0.7245-0.94 2.784-1.627 5.8225-0.7231 3.3626-2.0247 4.628-4.8811 4.7365h-2.9648v-10.559h-3.1456v24.045"/><path id="path96" d="m267.84 340.3c0.0361 2.0248-0.8316 5.1703-4.4125 5.1703-3.2179 0-4.6279-2.9648-4.8797-5.1703h9.2922zm-9.3297-2.2792c0.0737-4.3026 2.8216-6.0742 6.0033-6.0742 2.2778 0 3.6518 0.3977 4.8449 0.9039l0.5424-2.2765c-1.1209-0.5075-3.0371-1.1222-5.8212-1.1222-5.3872 0-8.6051 3.5795-8.6051 8.8582 0 5.2788 3.1094 9.4368 8.2074 9.4368 5.7127 0 7.2312-5.0243 7.2312-8.2422 0-0.6508-0.0723-1.157-0.1084-1.4838h-12.294"/><path id="path98" d="m272.97 333.1c0.9401-0.6133 2.6033-1.2655 4.1942-1.2655 2.3139 0 3.4 1.157 3.4 2.6032 0 1.52-0.9053 2.3502-3.2554 3.2179-3.1456 1.1209-4.628 2.8564-4.628 4.9548 0 2.8188 2.2778 5.1328 6.0381 5.1328 1.7716 0 3.3277-0.5048 4.3039-1.0833l-0.7968-2.314c-0.6856 0.4339-1.951 1.0124-3.5781 1.0124-1.8815 0-2.93-1.0861-2.93-2.3863 0-1.4463 1.0485-2.0971 3.3264-2.9648 3.0371-1.157 4.5932-2.677 4.5932-5.2802 0-3.0733-2.3863-5.2788-6.5443-5.2788-1.9162 0-3.6893 0.5062-4.9186 1.2293l0.8 2.42"/><path id="path100" d="m298.1 340.3c0.0362 2.0248-0.8315 5.1703-4.411 5.1703-3.2179 0-4.628-2.9648-4.8811-5.1703h9.2921zm-9.3282-2.2792c0.0723-4.3026 2.8201-6.0742 6.0019-6.0742 2.2778 0 3.6517 0.3977 4.8463 0.9039l0.5409-2.2765c-1.1194-0.5075-3.0357-1.1222-5.8197-1.1222-5.3887 0-8.6065 3.5795-8.6065 8.8582 0 5.2788 3.1094 9.4368 8.2088 9.4368 5.7113 0 7.2312-5.0243 7.2312-8.2422 0-0.6508-0.0737-1.157-0.1085-1.4838h-12.294"/><path id="path102" d="m313.61 338.78c-3.471 0.0737-7.412-0.5424-7.412-3.941 0-2.0595 1.3753-3.0358 3.001-3.0358 2.2778 0 3.724 1.4463 4.2302 2.9273 0.1099 0.3254 0.1808 0.687 0.1808 1.0138v3.0357zm3.0733-4.7351c0-1.5199 0.0723-3.0009 0.2892-4.1955h-2.8925l-0.2517 2.2055h-0.1098c-0.9762-1.3739-2.8564-2.6032-5.3511-2.6032-3.5433 0-5.3511 2.4948-5.3511 5.0257 0 4.2303 3.7602 6.5443 10.523 6.5095v0.3616c0 1.4462-0.3991 4.0494-3.9786 4.0494-1.627 0-3.3263-0.5061-4.5556-1.303l-0.7232 2.0985c1.4463 0.94 3.5433 1.5533 5.7489 1.5533 5.3525 0 6.6527-3.6518 6.6527-7.1575v-6.5443"/><path id="path104" d="m321.1 341.89c0 2.0623-0.0361 3.8325-0.1446 5.461h2.784l0.1085-3.4363h0.1446c0.7955 2.3516 2.7117 3.8326 4.8449 3.8326 0.3616 0 0.6147-0.0348 0.9039-0.1085v-2.9995c-0.3254 0.0723-0.6508 0.107-1.0846 0.107-2.2431 0-3.8326-1.6993-4.2665-4.0842-0.0723-0.4353-0.1446-0.9401-0.1446-1.4838v-9.3283h-3.1456v12.04"/><path id="path106" d="m344.31 330.5c-0.8315-0.4338-2.6755-1.0485-5.027-1.0485-5.2788 0-8.7123 3.617-8.7123 8.9667 0 5.3873 3.6866 9.2935 9.3992 9.2935 1.8815 0 3.5433-0.47 4.4125-0.9039l-0.7232-2.4586c-0.7592 0.4339-1.9538 0.8316-3.6893 0.8316-4.0119 0-6.1827-2.9648-6.1827-6.6166 0-4.0495 2.6033-6.5456 6.0743-6.5456 1.8091 0 3.0009 0.4714 3.9062 0.8691l0.54-2.39"/><path id="path108" d="m347.31 355.52h3.1817v-10.919h0.0723c0.5062 0.9039 1.3003 1.6979 2.2765 2.2417 0.9414 0.5423 2.0623 0.9025 3.2554 0.9025 2.3502 0 6.1104-1.4463 6.1104-7.4829v-10.414h-3.1817v10.053c0 2.8202-1.0485 5.2065-4.0509 5.2065-2.0609 0-3.6879-1.4463-4.2664-3.1818-0.1808-0.4352-0.2156-0.9052-0.2156-1.5185v-10.559h-3.1817v25.672"/><path id="path110" d="m391.46 330.65c-1.157-0.5785-3.471-1.1932-6.4358-1.1932-6.871 0-12.04 4.3763-12.04 12.367 0 7.6289 5.169 12.799 12.727 12.799 3.0371 0 4.9534-0.6508 5.785-1.086l-0.7607-2.5657c-1.1918 0.5785-2.8925 1.0123-4.9172 1.0123-5.7113 0-9.5091-3.6531-9.5091-10.051 0-5.9657 3.4348-9.7996 9.3658-9.7996 1.9163 0 3.8687 0.3977 5.1342 1.0123l0.6508-2.4947"/><path id="path112" d="m404.54 340.3c0.0362 2.0248-0.8315 5.1703-4.411 5.1703-3.2165 0-4.628-2.9648-4.8811-5.1703h9.2921zm-9.3282-2.2792c0.0723-4.3026 2.8201-6.0742 6.0019-6.0742 2.2778 0 3.6517 0.3977 4.8463 0.9039l0.5409-2.2765c-1.1194-0.5075-3.0357-1.1222-5.8197-1.1222-5.3887 0-8.6065 3.5795-8.6065 8.8582 0 5.2788 3.1094 9.4368 8.2088 9.4368 5.7113 0 7.2312-5.0243 7.2312-8.2422 0-0.6508-0.0737-1.157-0.1085-1.4838h-12.294"/><path id="path114" d="m410.83 342.62c0 1.8078-0.0362 3.2888-0.1446 4.7365h2.8202l0.1807-2.8925h0.0723c0.8678 1.6618 2.8925 3.2888 5.785 3.2888 2.4225 0 6.1827-1.4463 6.1827-7.4468v-10.45h-3.1817v10.088c0 2.8201-1.0485 5.1717-4.0495 5.1717-2.0971 0-3.7241-1.4838-4.2664-3.2555-0.1446-0.3963-0.217-0.94-0.217-1.481v-10.523h-3.1817v12.764"/><path id="path116" d="m433.14 351.55v-4.1941h4.5571v-2.4225h-4.5571v-9.4381c0-2.1694 0.6147-3.3973 2.3863-3.3973 0.8678 0 1.374 0.0709 1.844 0.2169l0.146-2.3877c-0.616-0.2531-1.5923-0.47-2.8202-0.47-1.4838 0-2.6769 0.5062-3.4362 1.3739-0.9039 0.9401-1.2293 2.4948-1.2293 4.5571v9.5452h-2.7117v2.4225h2.7117v3.2179l3.1094 0.9762"/><path id="path118" d="m451.44 340.3c0.0348 2.0248-0.833 5.1703-4.4124 5.1703-3.2179 0-4.628-2.9648-4.8811-5.1703h9.2935zm-9.3297-2.2792c0.0724-4.3026 2.8202-6.0742 6.002-6.0742 2.2778 0 3.6517 0.3977 4.8449 0.9039l0.5423-2.2765c-1.1208-0.5075-3.0371-1.1222-5.8211-1.1222-5.3873 0-8.6052 3.5795-8.6052 8.8582 0 5.2788 3.1095 9.4368 8.2075 9.4368 5.7126 0 7.2326-5.0243 7.2326-8.2422 0-0.6508-0.0737-1.157-0.1099-1.4838h-12.293"/><path id="path120" d="m457.73 341.89c0 2.0623-0.0362 3.8325-0.1446 5.461h2.784l0.1084-3.4363h0.1447c0.794 2.3516 2.7103 3.8326 4.8449 3.8326 0.3615 0 0.6146-0.0348 0.9039-0.1085v-2.9995c-0.3254 0.0723-0.6508 0.107-1.0847 0.107-2.2417 0-3.8325-1.6993-4.2678-4.0842-0.0709-0.4353-0.1432-0.9401-0.1432-1.4838v-9.3283h-3.1456v12.04"/></g></g></g></g></svg>
